# xmcd CD database file
#
# Track frame offsets:
#	150
#	14418
#	25881
#	36750
#	51738
#	56771
#	71251
#	79787
#	103559
#	116647
#	128892
#	153826
#	170370
#	185033
#	195709
#
# Disc length: 2764 seconds
#
# Revision: 0
# Processed by: cddbd v1.5.1PL0 Copyright (c) Steve Scherf et al.
# Submitted via: CDex 1.50Beta7
#
DISCID=cd0aca0f
DTITLE=Country Legends - Country Legends Gold
DYEAR=1900
DGENRE=Country
TTITLE0=Frankie Laine Don't Fence Me In
TTITLE1=Patsy Cline I've Loved And Lost Again
TTITLE2=Dolly Parton It Wasn't God Who Made Honky Tonk Angels
TTITLE3=Kenny Rogers Conditions
TTITLE4=Merle Haggard Love's Going To Live Here
TTITLE5=Tammy Wynette Crying In The Rain
TTITLE6=Waylon Jennings Aibelene
TTITLE7=Ed Bruce Texas When I Die
TTITLE8=The Catchers Phone You
TTITLE9=Match 22 Keep Them Peeled
TTITLE10=The Long Firm Trippin'
TTITLE11=USB Revolution
TTITLE12=TV Dinners Out Of Time
TTITLE13=EDP End Of Summers
TTITLE14=Jaanet The Church Sleep For A Year
EXTD=
EXTT0=
EXTT1=
EXTT2=
EXTT3=
EXTT4=
EXTT5=
EXTT6=
EXTT7=
EXTT8=
EXTT9=
EXTT10=
EXTT11=
EXTT12=
EXTT13=
EXTT14=
PLAYORDER=
